<?xml version="1.0" ?><svg xmlns="http://www.w3.org/2000/svg" xmlns:xlink="http://www.w3.org/1999/xlink" version="1.1" viewBox="0 0 94 94" style="enable-background:new 0 0 94 94;" xml:space="preserve"><style type="text/css">
	.st0{display:none;}
	.st1{display:inline;fill:#FEA900;}
	.st2{display:inline;}
	.st3{display:inline;fill:#F9CD6C;}
	.st4{display:inline;fill:none;stroke:#000000;stroke-width:0.25;stroke-miterlimit:10;}
	.st5{stroke:#000000;stroke-linecap:round;stroke-linejoin:round;stroke-miterlimit:10;}
	.st6{opacity:0.2;stroke:#000000;stroke-linecap:round;stroke-linejoin:round;stroke-miterlimit:10;}
	.st7{fill:#F12A00;stroke:#000000;stroke-linecap:round;stroke-linejoin:round;stroke-miterlimit:10;}
	.st8{fill:#FBECCF;stroke:#000000;stroke-linecap:round;stroke-linejoin:round;stroke-miterlimit:10;}
	.st9{opacity:0.2;fill:#F12A00;}
	.st10{fill:#F7C86C;stroke:#000000;stroke-linecap:round;stroke-linejoin:round;stroke-miterlimit:10;}
	.st11{fill:none;stroke:#000000;stroke-linecap:round;stroke-linejoin:round;stroke-miterlimit:10;}
	.st12{display:inline;stroke:#000000;stroke-linecap:round;stroke-linejoin:round;stroke-miterlimit:10;}
	.st13{fill:#FAAC01;stroke:#000000;stroke-linecap:round;stroke-linejoin:round;stroke-miterlimit:10;}
	.st14{fill:#FAAC01;}
	.st15{display:inline;fill:#FAEBCE;stroke:#000000;stroke-width:0.25;stroke-miterlimit:10;}
	.st16{display:inline;fill:none;stroke:#000000;stroke-width:1.0164;stroke-miterlimit:10;}
	.st17{display:inline;fill:#FAEBCE;stroke:#000000;stroke-width:1.0164;stroke-miterlimit:10;}
	.st18{fill:#FEA900;}
	.st19{fill:#F9CD6C;}
	.st20{fill:none;stroke:#000000;stroke-width:1.0164;stroke-miterlimit:10;}
	.st21{fill:#FAEBCE;stroke:#000000;stroke-width:1.0164;stroke-miterlimit:10;}
	.st22{display:inline;fill:#FAEBCE;}
	.st23{fill:#008FF5;stroke:#000000;stroke-linecap:round;stroke-linejoin:round;stroke-miterlimit:10;}
	.st24{fill:#D0E6FB;stroke:#000000;stroke-linecap:round;stroke-linejoin:round;stroke-miterlimit:10;}
	.st25{fill:#FFFFFF;stroke:#000000;stroke-linecap:round;stroke-linejoin:round;stroke-miterlimit:10;}
	.st26{fill:#75D95D;stroke:#000000;stroke-linecap:round;stroke-linejoin:round;stroke-miterlimit:10;}
	.st27{fill:#CAF3BB;}
	.st28{fill:#FFFFFF;}
	.st29{fill:#CAF3BB;stroke:#000000;stroke-linecap:round;stroke-linejoin:round;stroke-miterlimit:10;}
	.st30{display:inline;fill:#D0E6FB;stroke:#000000;stroke-linecap:round;stroke-linejoin:round;stroke-miterlimit:10;}
	.st31{stroke:#FFFFFF;stroke-linecap:round;stroke-linejoin:round;stroke-miterlimit:10;}
	.st32{fill:#B4B2FB;stroke:#000000;stroke-linecap:round;stroke-linejoin:round;stroke-miterlimit:10;}
	.st33{fill:#018BEE;}
	.st34{display:inline;fill:none;stroke:#000000;stroke-linecap:round;stroke-linejoin:round;stroke-miterlimit:10;}
	.st35{fill:#75D95D;}
	.st36{fill:#4949F7;stroke:#000000;stroke-linecap:round;stroke-linejoin:round;stroke-miterlimit:10;}
	.st37{fill:#D0E6FB;}
	.st38{fill:#6FBBF7;stroke:#000000;stroke-linecap:round;stroke-linejoin:round;stroke-miterlimit:10;}
	.st39{fill:#018BEE;stroke:#000000;stroke-linecap:round;stroke-linejoin:round;stroke-miterlimit:10;}
	.st40{fill:#B4B2FB;}
	.st41{fill:#E8E9FE;}
	.st42{fill:#B4B2FB;stroke:#000F24;stroke-miterlimit:10;}
	.st43{stroke:#000000;stroke-miterlimit:10;}
	.st44{fill:#E8E9FE;stroke:#000000;stroke-linecap:round;stroke-linejoin:round;stroke-miterlimit:10;}
	.st45{opacity:0.3;fill:#018BEE;}
	.st46{fill:#6FBBF7;}
	.st47{fill:#FAAC01;stroke:#FFFFFF;stroke-linecap:round;stroke-linejoin:round;stroke-miterlimit:10;}
	.st48{fill:#006A2F;}
	.st49{opacity:0.1;}
	.st50{fill:#FCD4CA;stroke:#000000;stroke-linecap:round;stroke-linejoin:round;stroke-miterlimit:10;}
	.st51{fill:#006A2F;stroke:#000000;stroke-linecap:round;stroke-linejoin:round;stroke-miterlimit:10;}
	.st52{fill:#4949F7;}
	.st53{fill:#F12A00;}
	.st54{fill:#D0E6FB;stroke:#018BEE;stroke-linecap:round;stroke-linejoin:round;stroke-miterlimit:10;}
	.st55{fill:#9CD7FF;}
	.st56{fill:#F7C86C;}
	.st57{opacity:0.3;stroke:#000000;stroke-linecap:round;stroke-linejoin:round;stroke-miterlimit:10;}
	.st58{opacity:0.1;stroke:#000000;stroke-linecap:round;stroke-linejoin:round;stroke-miterlimit:10;}
	.st59{opacity:0.3;fill:#006A2F;}
	.st60{stroke:#000000;stroke-width:1.0825;stroke-linecap:round;stroke-linejoin:round;stroke-miterlimit:10;}
	.st61{fill:#D0E6FB;stroke:#000000;stroke-width:1.0825;stroke-linecap:round;stroke-linejoin:round;stroke-miterlimit:10;}
	.st62{fill:#6FBBF7;stroke:#000000;stroke-width:1.0825;stroke-linecap:round;stroke-linejoin:round;stroke-miterlimit:10;}
	.st63{fill:none;stroke:#000000;stroke-width:1.0825;stroke-linecap:round;stroke-linejoin:round;stroke-miterlimit:10;}
	.st64{fill:#CAF3BB;stroke:#000000;stroke-width:0.7876;stroke-linecap:round;stroke-linejoin:round;stroke-miterlimit:10;}
	.st65{fill:#6FBBF7;stroke:#FFFFFF;stroke-linecap:round;stroke-linejoin:round;stroke-miterlimit:10;}
	.st66{opacity:0.2;}
	.st67{stroke:#E8E9FE;stroke-linecap:round;stroke-linejoin:round;stroke-miterlimit:10;}
	.st68{fill:#FCD4CA;}
	.st69{fill:#FBECCF;}
	.st70{opacity:0.1;fill:#F12A00;}
	.st71{opacity:0.5;stroke:#000000;stroke-linecap:round;stroke-linejoin:round;stroke-miterlimit:10;}
	.st72{fill:#6FBBF7;stroke:#E8E9FE;stroke-linecap:round;stroke-linejoin:round;stroke-miterlimit:10;}
	.st73{opacity:0.5;fill:#D0E6FB;}
	.st74{fill:#70BAF7;}
	.st75{fill:none;stroke:#FFFFFF;stroke-linecap:round;stroke-linejoin:round;stroke-miterlimit:10;}
	.st76{fill:#70BAF7;stroke:#70BAF7;stroke-linecap:round;stroke-linejoin:round;stroke-miterlimit:10;}
	.st77{fill:#018BEE;stroke:#018BEE;stroke-linecap:round;stroke-linejoin:round;stroke-miterlimit:10;}
	.st78{fill:#70BAF7;stroke:#000000;stroke-linecap:round;stroke-linejoin:round;stroke-miterlimit:10;}
	.st79{fill:#F9CD6C;stroke:#000000;stroke-linecap:round;stroke-linejoin:round;stroke-miterlimit:10;}
	.st80{fill:none;}
	.st81{fill:#006A2F;stroke:#006A2F;stroke-miterlimit:10;}
	.st82{fill:#B4DFFC;}
	.st83{fill:#6FBBF7;stroke:#018BEE;stroke-linecap:round;stroke-linejoin:round;stroke-miterlimit:10;}
	.st84{fill:none;stroke:#FBECCF;stroke-linecap:round;stroke-linejoin:round;stroke-miterlimit:10;}
	.st85{fill:none;stroke:#018BEE;stroke-linecap:round;stroke-linejoin:round;stroke-miterlimit:10;}
	.st86{fill:#010101;stroke:#FFFFFF;stroke-linecap:round;stroke-linejoin:round;stroke-miterlimit:10;}
	.st87{fill:#010101;stroke:#000000;stroke-linecap:round;stroke-linejoin:round;stroke-miterlimit:10;}
	.st88{fill:#75D95D;stroke:#FFFFFF;stroke-linecap:round;stroke-linejoin:round;stroke-miterlimit:10;}
	.st89{fill:#94F279;stroke:#000000;stroke-linecap:round;stroke-linejoin:round;stroke-miterlimit:10;}
	.st90{fill:#8C8CF9;}
	.st91{fill:#008FF5;}
	.st92{fill:#8CD8F9;}
	.st93{fill:#FFC043;}
	.st94{fill:#94F279;}
	.st95{fill:#FF3D1D;}
	.st96{fill:#31B1FF;}
	.st97{fill:#FFCF7B;}
	.st98{fill:#B2FF99;}
	.st99{fill:#D7D7FF;}
	.st100{fill:#FF7C6E;}
	.st101{fill:#5CC9FF;}
	.st102{fill:#F12A00;stroke:#FFFFFF;stroke-linecap:round;stroke-linejoin:round;stroke-miterlimit:10;}
	.st103{fill:#F7C86C;stroke:#000000;stroke-width:1.0164;stroke-miterlimit:10;}
</style><g id="Refrences" class="st0"/><g id="Tittle"/><g id="Icons"><rect x="6.15" y="4.11" class="st5" width="10.31" height="54.7"/><g><path class="st5" d="M16.46,2H5.19C3.62,2,2.35,3.27,2.35,4.84s1.27,2.84,2.84,2.84h11.27V2z"/><path class="st5" d="M16.46,55.25H5.19c-1.57,0-2.84,1.27-2.84,2.84c0,1.57,1.27,2.84,2.84,2.84h11.27V55.25z"/></g><path class="st5" d="M70.32,90.06c-0.14-0.77-0.33-1.53-0.53-2.29c-0.17-0.68-0.17-1.35-0.04-1.98l-18.2-18.2   c-1.06-1.06-1.65-2.49-1.65-3.99v-9.82h-6.34v10.01c0,1.5-0.59,2.93-1.65,3.99L23.72,85.98c-1.17,1.17-1.4,3.08-0.35,4.37   c1.21,1.48,7.15,2.15,8.46,0.83l11.73-16.08v13.07c0,1.66,1.19,3.17,2.84,3.33c1.9,0.19,7.18,0.39,7.18-1.47L49.9,74.9l15.68,15.68   c0.55,0.55,1.31,0.62,1.96,0.92c0.51,0.23,1.97,0.47,3.31,0.49C70.55,91.4,70.38,90.75,70.32,90.06z"/><path class="st10" d="M72.01,85.98L53.63,67.6c-1.06-1.06-1.65-2.49-1.65-3.99v-9.82h-6.34v10.01c0,1.5-0.59,2.93-1.65,3.99   L25.8,85.98c-1.17,1.17-1.4,3.08-0.35,4.37c1.21,1.48,3.39,1.56,4.7,0.24l15.49-15.49l0,13.07c0,1.66,1.19,3.17,2.84,3.33   c1.9,0.19,3.49-1.29,3.49-3.15V74.9l15.68,15.68c1.31,1.31,3.49,1.23,4.7-0.24C73.41,89.06,73.19,87.15,72.01,85.98z"/><rect x="9.96" y="4.11" class="st44" width="78.03" height="54.7"/><g><path class="st32" d="M88.81,7.68L9,7.68c-1.57,0-2.84-1.27-2.84-2.84v0C6.16,3.27,7.43,2,9,2h79.81c1.57,0,2.84,1.27,2.84,2.84v0    C91.65,6.41,90.38,7.68,88.81,7.68z"/><path class="st32" d="M88.81,60.93H9c-1.57,0-2.84-1.27-2.84-2.84v0c0-1.57,1.27-2.84,2.84-2.84h79.81c1.57,0,2.84,1.27,2.84,2.84    v0C91.65,59.66,90.38,60.93,88.81,60.93z"/></g><g><g><path d="M47.72,28.76h-13.2V15.57C41.81,15.57,47.72,21.48,47.72,28.76z"/><path class="st31" d="M37.12,18.51c3.75,0.95,6.71,3.91,7.67,7.65"/><g><path class="st5" d="M45.7,32c0,7.28-5.91,13.19-13.2,13.19c-7.28,0-13.19-5.91-13.19-13.19s5.91-13.19,13.19-13.19V32H45.7z"/><path class="st32" d="M44.48,32c0,7.28-5.91,13.19-13.2,13.19c-7.28,0-13.19-5.91-13.19-13.19s5.91-13.19,13.19-13.19V32H44.48z      "/><path class="st33" d="M31.28,18.81v1.83c-6.47,0.85-11.47,6.38-11.47,13.07c0,3.19,1.44,6.11,3.32,8.39      c-2.88-2.41-5.03-6.05-5.03-10.1C18.09,24.72,24,18.81,31.28,18.81z"/><path class="st11" d="M44.48,32c0,7.28-5.91,13.19-13.2,13.19c-7.28,0-13.19-5.91-13.19-13.19s5.91-13.19,13.19-13.19V32H44.48z      "/></g></g><g><g><path class="st5" d="M54.29,47.35h-2.55c-0.38,0-0.69-0.31-0.69-0.69V35.28c0-0.38,0.31-0.69,0.69-0.69h2.55      c0.38,0,0.69,0.31,0.69,0.69v11.38C54.99,47.04,54.68,47.35,54.29,47.35z"/><path class="st5" d="M62.58,47.35h-2.55c-0.38,0-0.69-0.31-0.69-0.69V27.38c0-0.38,0.31-0.69,0.69-0.69h2.55      c0.38,0,0.69,0.31,0.69,0.69v19.28C63.27,47.04,62.96,47.35,62.58,47.35z"/><path class="st5" d="M70.87,47.35h-2.55c-0.38,0-0.69-0.31-0.69-0.69v-12.3c0-0.38,0.31-0.69,0.69-0.69h2.55      c0.38,0,0.69,0.31,0.69,0.69v12.3C71.56,47.04,71.25,47.35,70.87,47.35z"/><path class="st5" d="M79.16,47.35h-2.55c-0.38,0-0.69-0.31-0.69-0.69V20.68c0-0.38,0.31-0.69,0.69-0.69h2.55      c0.38,0,0.69,0.31,0.69,0.69v25.98C79.85,47.04,79.54,47.35,79.16,47.35z"/><path class="st24" d="M53.09,47.35h-2.55c-0.38,0-0.69-0.31-0.69-0.69V35.28c0-0.38,0.31-0.69,0.69-0.69h2.55      c0.38,0,0.69,0.31,0.69,0.69v11.38C53.78,47.04,53.47,47.35,53.09,47.35z"/><path class="st26" d="M61.38,47.35h-2.55c-0.38,0-0.69-0.31-0.69-0.69V27.38c0-0.38,0.31-0.69,0.69-0.69h2.55      c0.38,0,0.69,0.31,0.69,0.69v19.28C62.07,47.04,61.76,47.35,61.38,47.35z"/><path class="st24" d="M69.67,47.35h-2.55c-0.38,0-0.69-0.31-0.69-0.69v-12.3c0-0.38,0.31-0.69,0.69-0.69h2.55      c0.38,0,0.69,0.31,0.69,0.69v12.3C70.36,47.04,70.05,47.35,69.67,47.35z"/><path class="st26" d="M77.96,47.35H75.4c-0.38,0-0.69-0.31-0.69-0.69V20.68c0-0.38,0.31-0.69,0.69-0.69h2.55      c0.38,0,0.69,0.31,0.69,0.69v25.98C78.65,47.04,78.34,47.35,77.96,47.35z"/></g></g></g></g><g id="Layer_4"/></svg>